<?xml version="1.0" encoding="utf-8"?>
<!-- Generator: Adobe Illustrator 24.3.0, SVG Export Plug-In . SVG Version: 6.00 Build 0)  -->
<svg version="1.1" id="Layer_1" xmlns="http://www.w3.org/2000/svg" xmlns:xlink="http://www.w3.org/1999/xlink" x="0px" y="0px"
	 viewBox="0 0 50 62" style="enable-background:new 0 0 50 62;" xml:space="preserve">
<g>
	<g>
		<path d="M50-2H0c-1.1,0-2,0.9-2,2v8c0,1.1,0.9,2,2,2h0.2L3,62.1C3.1,63.2,4,64,5,64H45c1.1,0,1.9-0.8,2-1.9L49.8,10H50
			c1.1,0,2-0.9,2-2V0C52-1.1,51.1-2,50-2z M7,60L6.4,49.3L27.1,60H7z M43,60h-2.8L6.1,42.4L5.2,24.2l3.8,2c-0.7,1.8-1,3.8-1,5.8
			c0,9.3,7.6,16.9,16.9,16.9c5.8,0,10.8-2.9,13.9-7.3l4.9,2.5L43,60z M12.2,32c0-7,5.7-12.8,12.8-12.8S37.8,25,37.8,32
			S32,44.8,25,44.8S12.2,39,12.2,32z M44.1,37.6l-2.7-1.4c0.3-1.3,0.5-2.8,0.5-4.2c0-9.3-7.6-16.9-16.9-16.9c-5.2,0-9.8,2.3-12.9,6
			l-7.2-3.7L4.6,10h20.3l20,10.3L44.1,37.6z M45.2,13.7L37.9,10h7.4L45.2,13.7z M48,6H2V2h46V6z"/>
	</g>
	<g>
		<path d="M26.1,20.9L25,19.9l-1.1,1.1c-0.3,0.3-6.4,6.5-6.4,13.1c0,6,6.7,8.3,7,8.4l0.5,0.2l0.5-0.2c0.3-0.1,7-2.4,7-8.4
			C32.5,27.5,26.3,21.2,26.1,20.9z M25.3,36h-0.7c-0.6,0-1.2,0.5-1.2,1.2v1.4c-1.3-0.9-3-2.4-3-4.6c0-2.8,1.6-5.8,3-7.8v7.1
			c0,0.6,0.5,1.2,1.2,1.2h0.7c0.6,0,1.2-0.5,1.2-1.2v-7.1c1.4,2,3,5,3,7.8c0,2.2-1.7,3.7-3,4.6v-1.4C26.5,36.5,26,36,25.3,36z"/>
	</g>
</g>
</svg>
