<?xml version="1.0" encoding="utf-8"?>
<!-- Generator: Adobe Illustrator 24.3.0, SVG Export Plug-In . SVG Version: 6.00 Build 0)  -->
<svg version="1.1" id="Layer_1" xmlns="http://www.w3.org/2000/svg" xmlns:xlink="http://www.w3.org/1999/xlink" x="0px" y="0px"
	 viewBox="0 0 45.8 33.8" style="enable-background:new 0 0 45.8 33.8;" xml:space="preserve">
<g>
	<g>
		<path d="M45,9.2l-2.5-3.4C42,5,41.1,4.4,40,4.2c-0.9-0.2-1.9,0-2.5,0.4l-1,0.8c-1,0.7-1.5,1.8-1.6,2.9L31.4,10l0.5-2.3
			c0.3-1.3-0.5-2.6-1.8-2.9L11.4,0.1c-1.3-0.3-2.6,0.4-3,1.7L8.1,3C6,2.2,4,2.3,2.4,3.3c-2.7,1.8-2.5,6.1-2.2,7.9
			c0.2,1.2,0.8,5,3.2,7.3l-2.1,7.1c0,0.5,0.1,1.1,0.3,1.5c0.3,0.6,0.9,1,1.5,1.1l0,0l21,5.5c0.3,0.1,0.6,0,0.9,0c1-0.2,1.8-0.9,2-2
			l1.3-6.6l12-9.5c1.1,0.3,2.3,0.1,3.2-0.6l1-0.8c0.8-0.8,1-1.2,1.1-2.2C45.9,11.1,45.7,10.1,45,9.2z M4.3,6.3
			C5,5.4,6.5,5.5,7.4,6.1l-2.7,8.8c-0.5-0.5-0.9-2.9-1.1-4.1C3.3,8.4,3.7,7.1,4.3,6.3z M23.8,30.1L5,25.2l2.2-7.4L10.5,7l1-3.3
			l16.7,4.2L23.8,30.1z M28.9,20.7l1.3-6.3l6.5-2.9l1.2,1.7L28.9,20.7z M42.9,12.1l-1,0.7c-0.1,0.1-0.3,0.2-0.5,0.1
			c-0.2,0-0.4-0.1-0.5-0.3l-2.7-3.8c-0.2-0.3-0.1-0.8,0.2-1l1-0.7C39.5,7,39.7,7,39.9,7c0.2,0,0.3,0.1,0.5,0.3l2.7,3.8
			C43.2,11.4,43.2,11.8,42.9,12.1z"/>
	</g>
</g>
</svg>
